<svg xmlns="http://www.w3.org/2000/svg" data-name="Layer 1" viewBox="0 0 700 550" id="christmas-tree"><path fill="#edf2fa" d="M196.423 433.555c-34.436-25.88-66.624-75.532-54.988-114.896 9.877-33.413 43.504-33.179 53.294-68.199 11.411-40.82-27.898-63.957-23.965-96.9C180.348 73.29 437.278 13.367 469.8 70.204c23.028 40.247-79.308 116.586-51.055 166.71 25.22 44.744 120.678 8.611 147.954 55.223 22.733 38.846-13.577 115.185-67.44 148.896-28.777 18.008-67.249 16.925-143.007 17.758-83.405.916-125.807.331-159.829-25.236"></path><path fill="#e4ebf1" d="M129.303 431.495c3.86 0 3.867-6 0-6-3.86 0-3.867 6 0 6M551.072 496.535c-.09 8.243-89.74 13.956-200.238 12.76-110.5-1.195-200.005-8.846-199.916-17.09.09-8.242 89.739-13.955 200.238-12.76 110.5 1.195 200.005 8.847 199.916 17.09"></path><path fill="#f15b43" d="M457.527 429.697h69.48v65.88h-69.48z"></path><path fill="#cf2633" d="M457.526 434.377h69.48v12.6h-69.48z"></path><path fill="#ffcc5d" d="M457.526 463.117h69.479v3h-69.479z"></path><path fill="#ffcc5d" d="M490.767 429.697h3v65.881h-3z"></path><path fill="#ffcc5d" d="M491.643 430.812a8.69 8.69 0 0 1-2.886-.899 33.814 33.814 0 0 0-7.13-2.284 23.763 23.763 0 0 0-7.188-.526 21.723 21.723 0 0 0-3.494.634 7.347 7.347 0 0 1-4.36.138 8.562 8.562 0 0 1-1.597-.678 7.668 7.668 0 0 1-2.611 1.118 6.375 6.375 0 0 1-4.863-.999 1 1 0 0 1 1.146-1.638 4.342 4.342 0 0 0 3.296.682 5.779 5.779 0 0 0 1.241-.434c-1.242-1.132-2.015-2.527-1.699-3.757a2.697 2.697 0 0 1 2.66-1.92 2.55 2.55 0 0 1 1.764.983 4.336 4.336 0 0 1 .959 3.091 3.444 3.444 0 0 1-.445 1.365 6.47 6.47 0 0 0 .731.273 5.38 5.38 0 0 0 3.296-.164 23.777 23.777 0 0 1 3.79-.687 22.246 22.246 0 0 1 4.498.036 10.26 10.26 0 0 1-2.408-2.12c-2.683-3.505-3.483-5.897-2.445-7.318 1.21-1.655 4.182-1.003 6.313-.37 5.977 1.78 9.176 6.787 11.087 9.78 1.406 2.202 2.518 3.945 1.562 5.118-.012.016-.025.03-.038.045a1.465 1.465 0 0 1-1.18.53Zm-15.165-14.157c-.78 0-.953.217-.964.233-.007.008-.576 1.012 2.416 4.92 1.17 1.528 5.234 4.063 12.897 6.399-.353-.664-.873-1.478-1.214-2.013-1.876-2.936-4.709-7.372-9.971-8.938a11.713 11.713 0 0 0-3.164-.6Zm-12.475 5.59a.74.74 0 0 0-.567.422c-.099.384.408 1.201 1.3 1.955a1.458 1.458 0 0 0 .157-.51 2.342 2.342 0 0 0-.503-1.593.682.682 0 0 0-.372-.274Z"></path><path fill="#ffcc5d" d="M492.89 430.81a1.468 1.468 0 0 1-1.178-.527l-.038-.045c-.96-1.172.152-2.915 1.56-5.12 1.912-2.993 5.11-8 11.086-9.778 2.133-.636 5.105-1.287 6.314.368 1.038 1.42.238 3.813-2.444 7.316a10.237 10.237 0 0 1-2.41 2.122 22.393 22.393 0 0 1 4.498-.036 23.771 23.771 0 0 1 3.791.687 5.398 5.398 0 0 0 3.297.164 6.386 6.386 0 0 0 .73-.273 3.44 3.44 0 0 1-.445-1.364 4.334 4.334 0 0 1 .96-3.09 2.548 2.548 0 0 1 1.767-.985 2.734 2.734 0 0 1 2.656 1.92c.317 1.23-.457 2.625-1.699 3.757a5.785 5.785 0 0 0 1.242.434 4.351 4.351 0 0 0 3.298-.683 1 1 0 1 1 1.143 1.64 6.406 6.406 0 0 1-4.862.998 7.664 7.664 0 0 1-2.612-1.118 8.592 8.592 0 0 1-1.597.678 7.35 7.35 0 0 1-4.36-.138 21.716 21.716 0 0 0-3.495-.635 23.751 23.751 0 0 0-7.186.527 33.799 33.799 0 0 0-7.13 2.284 8.674 8.674 0 0 1-2.885.898Zm15.165-14.155a11.69 11.69 0 0 0-3.162.6c-5.265 1.567-8.098 6.003-9.973 8.938-.342.536-.861 1.35-1.215 2.014 7.663-2.336 11.728-4.871 12.897-6.397 2.993-3.91 2.423-4.914 2.417-4.922-.012-.016-.186-.233-.964-.233Zm12.476 5.59h-.014a.69.69 0 0 0-.374.274 2.343 2.343 0 0 0-.503 1.593 1.453 1.453 0 0 0 .157.51c.89-.753 1.398-1.571 1.3-1.955a.74.74 0 0 0-.566-.423Z"></path><path fill="#f39821" d="M490.781 442.297h2.971v4.68h-2.971zM489.151 463.057h1.63v3.083h-1.63zM509.011 463.057h1.63v3.083h-1.63z"></path><path fill="#ffcc5d" d="M510.661 429.697h3v65.881h-3z"></path><path fill="#f39821" d="M510.676 442.297h2.97v4.68h-2.97z"></path><path fill="#ffcc5d" d="M454.303 429.697h75.926v12.6h-75.926z"></path><path fill="#f15b43" d="M199.612 428.268h69.48v65.88h-69.48z"></path><path fill="#cf2633" d="M199.613 432.948h69.48v12.6h-69.48z"></path><path fill="#ffcc5d" d="M199.613 461.688h69.479v3h-69.479z"></path><path fill="#ffcc5d" d="M232.854 428.268h3v65.881h-3z"></path><path fill="#ffcc5d" d="M233.73 429.382a8.674 8.674 0 0 1-2.884-.898 33.742 33.742 0 0 0-7.131-2.284 23.732 23.732 0 0 0-7.189-.526 21.708 21.708 0 0 0-3.493.635 7.353 7.353 0 0 1-4.36.136 8.534 8.534 0 0 1-1.598-.677 7.649 7.649 0 0 1-2.613 1.118 6.382 6.382 0 0 1-4.86-.998 1 1 0 0 1 1.142-1.64 4.342 4.342 0 0 0 3.298.683 5.719 5.719 0 0 0 1.241-.434c-1.242-1.133-2.015-2.527-1.698-3.759a2.707 2.707 0 0 1 2.656-1.919 2.552 2.552 0 0 1 1.768.985 4.34 4.34 0 0 1 .959 3.089 3.444 3.444 0 0 1-.446 1.366 6.221 6.221 0 0 0 .732.272 5.405 5.405 0 0 0 3.297-.163 23.761 23.761 0 0 1 3.789-.686 22.536 22.536 0 0 1 4.498.035 10.24 10.24 0 0 1-2.408-2.12c-2.687-3.5-3.487-5.894-2.446-7.319 1.21-1.651 4.18-1 6.307-.37 5.986 1.781 9.184 6.79 11.094 9.781 1.406 2.202 2.518 3.944 1.562 5.119l-.039.047a1.469 1.469 0 0 1-1.178.527Zm-15.168-14.154c-.778 0-.952.214-.963.231-.006.008-.58 1.017 2.418 4.92 1.169 1.526 5.232 4.061 12.897 6.4-.353-.665-.873-1.478-1.215-2.013-1.874-2.936-4.706-7.372-9.97-8.94a11.741 11.741 0 0 0-3.167-.598Zm-12.473 5.586a.743.743 0 0 0-.567.422c-.1.385.409 1.203 1.3 1.957a1.463 1.463 0 0 0 .157-.511 2.343 2.343 0 0 0-.502-1.592.685.685 0 0 0-.373-.275Z"></path><path fill="#ffcc5d" d="M234.976 429.38a1.465 1.465 0 0 1-1.177-.525.708.708 0 0 1-.042-.05c-.953-1.175.158-2.916 1.563-5.116 1.912-2.993 5.11-8 11.087-9.779 2.137-.634 5.105-1.282 6.314.367 1.039 1.424.239 3.818-2.445 7.32a10.247 10.247 0 0 1-2.409 2.12 22.321 22.321 0 0 1 4.498-.035 23.756 23.756 0 0 1 3.79.686 5.407 5.407 0 0 0 3.298.163 6.435 6.435 0 0 0 .73-.271 3.459 3.459 0 0 1-.445-1.365 4.335 4.335 0 0 1 .958-3.09 2.55 2.55 0 0 1 1.768-.986 2.712 2.712 0 0 1 2.657 1.92c.316 1.232-.457 2.626-1.7 3.758a5.772 5.772 0 0 0 1.242.434 4.356 4.356 0 0 0 3.3-.685 1 1 0 0 1 1.14 1.643 6.412 6.412 0 0 1-4.86.997 7.664 7.664 0 0 1-2.613-1.117 8.605 8.605 0 0 1-1.596.676 7.354 7.354 0 0 1-4.361-.136 21.702 21.702 0 0 0-3.494-.635 23.684 23.684 0 0 0-7.189.526 33.825 33.825 0 0 0-7.13 2.283 8.663 8.663 0 0 1-2.884.898Zm15.168-14.153a11.707 11.707 0 0 0-3.16.597c-5.27 1.569-8.102 6.005-9.977 8.94-.342.536-.862 1.35-1.216 2.014 7.664-2.337 11.729-4.873 12.898-6.398 2.995-3.907 2.423-4.913 2.417-4.922-.012-.016-.185-.231-.962-.231Zm12.472 5.587-.014.001a.685.685 0 0 0-.373.275 2.344 2.344 0 0 0-.502 1.593 1.458 1.458 0 0 0 .157.51c.891-.754 1.398-1.572 1.3-1.956a.744.744 0 0 0-.568-.423Z"></path><path fill="#f39821" d="M232.868 440.869h2.97v4.68h-2.97zM231.238 461.628h1.63v3.083h-1.63zM251.097 461.628h1.631v3.083h-1.631z"></path><path fill="#ffcc5d" d="M252.748 428.268h3v65.881h-3z"></path><path fill="#f39821" d="M252.762 440.869h2.971v4.68h-2.971z"></path><path fill="#ffcc5d" d="M196.39 428.268h75.925v12.601H196.39z"></path><path fill="#e4ebf1" d="M276.082 196.154c3.86 0 3.867-6 0-6-3.861 0-3.867 6 0 6M155.841 284.192c3.86 0 3.867-6 0-6-3.86 0-3.867 6 0 6M196.39 325.533c3.86 0 3.867-6 0-6-3.86 0-3.867 6 0 6M442.526 221.921c3.861 0 3.867-6 0-6-3.86 0-3.867 6 0 6M466.162 351.593c3.86 0 3.866-6 0-6-3.861 0-3.867 6 0 6M509.011 242.365c3.86 0 3.867-6 0-6-3.86 0-3.867 6 0 6M427.399 151.17c3.86 0 3.867-6 0-6-3.86 0-3.867 6 0 6M466.162 431.618c3.86 0 3.866-6 0-6-3.861 0-3.867 6 0 6"></path><path fill="#fff" d="M376.449 206.267c5.79 0 5.8-9 0-9-5.791 0-5.801 9 0 9M263.122 336.975c5.79 0 5.8-9 0-9-5.792 0-5.801 9 0 9M184.28 437.765c5.792 0 5.802-9 0-9-5.79 0-5.8 9 0 9M231.801 230.465c5.791 0 5.801-9 0-9-5.79 0-5.8 9 0 9M179.934 379.7c5.791 0 5.801-9 0-9-5.79 0-5.8 9 0 9M208.72 151.986c5.791 0 5.801-9 0-9-5.79 0-5.8 9 0 9M401.24 83.995c5.79 0 5.8-9 0-9-5.792 0-5.802 9 0 9M345.896 137.713c5.791 0 5.801-9 0-9-5.791 0-5.801 9 0 9M509.01 342.937c5.792 0 5.801-9 0-9-5.79 0-5.8 9 0 9M454.743 282.692c5.792 0 5.801-9 0-9-5.79 0-5.8 9 0 9M486.681 394.057c5.791 0 5.801-9 0-9-5.79 0-5.8 9 0 9"></path><path fill="#e4ebf1" d="M530.229 308.696c3.86 0 3.867-6 0-6-3.86 0-3.867 6 0 6"></path><path fill="#d27c2a" d="M320.151 434.439h32.217V499.7h-32.217z"></path><path fill="#9f5325" d="M320.151 458.051a11.209 11.209 0 0 1 4.48 8.964 11.238 11.238 0 0 1 22.475 0 11.218 11.218 0 0 1 5.263-9.505v-31.485h-32.218Z"></path><path fill="#82c56d" d="M448.24 441.46a11.237 11.237 0 0 0-11.237 11.236 11.237 11.237 0 0 0-22.475 0 11.237 11.237 0 1 0-22.474 0 11.237 11.237 0 1 0-22.474 0 11.237 11.237 0 1 0-22.474 0 11.237 11.237 0 1 0-22.474 0 11.237 11.237 0 1 0-22.474 0 11.238 11.238 0 0 0-22.475 0 11.236 11.236 0 1 0-22.473 0 11.238 11.238 0 0 0-22.475 0 11.237 11.237 0 0 0-11.237-11.237c-6.206 0-12.002 11.237-12.002 11.237l122.39-250.82s128.613 252.885 127.125 250.82c0-.017-6.565-11.237-12.771-11.237"></path><path fill="#4da258" d="M268.064 385.603a11.237 11.237 0 0 1 11.237 11.237 11.237 11.237 0 1 1 22.474 0 11.237 11.237 0 0 1 22.475 0 11.237 11.237 0 1 1 22.473 0 11.238 11.238 0 0 1 22.475 0 11.236 11.236 0 1 1 22.473 0 11.238 11.238 0 0 1 22.475 0 11.236 11.236 0 0 1 11.237-11.237 5.74 5.74 0 0 1 2.016.39c-37.667-74.309-93.514-184.117-93.514-184.117l-89.966 184.373c11.117-2.056 12.908 4.828 12.908 10.591a11.237 11.237 0 0 1 11.237-11.237"></path><path fill="#0b1436" d="M369.564 113.034h-.076v-.764l.076.764zM347.093 113.034h-.077v-.764l.077.764z"></path><path fill="#82c56d" d="M241.192 337.876c13.565-3.762 15.635 3.752 15.635 9.958a11.237 11.237 0 0 1 22.474 0 11.237 11.237 0 0 1 22.474 0 11.238 11.238 0 0 1 22.475 0 11.236 11.236 0 1 1 22.473 0 11.238 11.238 0 0 1 22.475 0 11.237 11.237 0 1 1 22.474 0 11.237 11.237 0 0 1 22.474 0 11.236 11.236 0 0 1 11.236-11.237c6.206 0 11.304 11.237 11.304 11.237.015 0-101.588-206.466-101.588-206.466l-96.426 197.613-4.32 8.853s4.713-9.368 6.84-9.958"></path><path fill="#4da258" d="M357.852 288.931a11.183 11.183 0 0 1 11.183 11.183 11.182 11.182 0 1 1 22.365 0 11.183 11.183 0 0 1 11.182-11.183c2.74 0 5.353 2.198 7.414 4.646-28.37-57.66-69.8-141.849-74.464-151.327l-35.844 71.69-38.774 79.46c1.982-2.31 4.602-4.469 7.476-4.469a11.183 11.183 0 0 1 11.183 11.183 11.183 11.183 0 1 1 22.365 0 11.182 11.182 0 1 1 22.365 0 11.182 11.182 0 1 1 22.365 0 11.184 11.184 0 0 1 11.184-11.183"></path><path fill="#303443" d="M347.169 300.114h-1a10.695 10.695 0 0 0-10.683-10.683v-1a11.704 11.704 0 0 1 11.183 8.298 11.704 11.704 0 0 1 11.183-8.298v1a10.695 10.695 0 0 0-10.683 10.683Z"></path><path fill="#82c56d" d="M414.298 261.01c.931 1.29-78.326-158.745-78.326-158.745l-78.765 157.531s5.006-9.969 11.183-9.969a11.182 11.182 0 0 1 11.182 11.183 11.183 11.183 0 0 1 22.366 0 11.182 11.182 0 1 1 22.365 0 11.183 11.183 0 0 1 22.366 0 11.182 11.182 0 1 1 22.365 0 11.183 11.183 0 0 1 22.366 0 11.182 11.182 0 0 1 11.182-11.183c6.176 0 11.716 11.172 11.716 11.183"></path><path fill="#4da258" d="M380.762 195.368a4.668 4.668 0 0 1 1.394.254 134572.15 134572.15 0 0 0-46.183-93.357l-46.666 93.332a5.783 5.783 0 0 1 1.558-.23 11.23 11.23 0 0 1 11.197 10.357c.023.29.04.582.04.88 0-.298.014-.59.037-.88a11.232 11.232 0 0 1 22.395 0c.024.29.04.582.04.88 0-.298.014-.59.038-.88a11.236 11.236 0 0 1 22.403 0c.023.29.038.582.038.88 0-.298.016-.59.038-.88a11.233 11.233 0 0 1 22.397 0c.023.29.038.582.038.88 0-.298.015-.59.038-.88a11.231 11.231 0 0 1 11.198-10.356"></path><path fill="#82c56d" d="M391.479 178.984c-.353-1.117-6.937-7.848-10.717-7.848a11.231 11.231 0 0 0-11.198 10.357c-.022.29-.038.58-.038.879 0-.298-.015-.59-.038-.88a11.232 11.232 0 0 0-22.396 0c-.023.29-.039.582-.039.88 0-.298-.014-.59-.038-.88a11.236 11.236 0 0 0-22.403 0c-.024.29-.038.582-.038.88 0-.298-.016-.59-.039-.88a11.232 11.232 0 0 0-22.396 0c-.023.29-.038.582-.038.88 0-.298-.016-.59-.039-.88a11.23 11.23 0 0 0-11.197-10.356c-5.906 0-12.132 10.357-12.132 10.357l57-114 54.193 108.378c.007 0 .007.008.007.015Z"></path><path fill="#82c56d" d="M391.479 178.984c-.353-1.117-6.937-7.848-10.717-7.848a11.231 11.231 0 0 0-11.198 10.357c-.022.29-.038.58-.038.879 0-.298-.015-.59-.038-.88a11.232 11.232 0 0 0-22.396 0c-.023.29-.039.582-.039.88 0-.298-.014-.59-.038-.88a11.236 11.236 0 0 0-22.403 0c-.024.29-.038.582-.038.88 0-.298-.016-.59-.039-.88a11.232 11.232 0 0 0-22.396 0c-.023.29-.038.582-.038.88 0-.298-.016-.59-.039-.88a11.23 11.23 0 0 0-11.197-10.356c-5.906 0-12.132 10.357-12.132 10.357l57-114 54.193 108.378c.007 0 .007.008.007.015Z"></path><path fill="#303443" d="M325.074 182.371h-1c0-.284-.015-.563-.037-.84a10.772 10.772 0 0 0-10.7-9.895v-1a11.796 11.796 0 0 1 11.236 8.355 11.801 11.801 0 0 1 11.244-8.355v1a10.772 10.772 0 0 0-10.706 9.894c-.024.28-.037.558-.037.841Z"></path><path fill="#4da258" d="M437.002 452.697a11.236 11.236 0 0 1 11.237-11.237c6.206 0 12.771 11.219 12.771 11.237.79 1.096-35.074-69.637-68.904-136.255-.177 24.729-1.237 49.324-4.618 53.745 0 0-1.779 25.89 27.81 78.447a11.232 11.232 0 0 1 21.704 4.063M436.244 346.932l.442.902s-.156-.343-.442-.902"></path><path fill="#4da258" d="M436.244 346.932c-4.193-8.536-37.458-76.14-64.714-131.528a116.02 116.02 0 0 0 19.87 45.606s1.684 51.741-.046 84.212a11.193 11.193 0 0 1 .318 2.612 11.237 11.237 0 0 1 22.474 0 11.237 11.237 0 0 1 11.238-11.237c5.129 0 9.499 7.673 10.86 10.335"></path><path fill="#4da258" d="M369.488 181.493s-4.607 34.732 15.276 69.308a11.176 11.176 0 0 1 6.636 10.21 11.183 11.183 0 0 1 11.183-11.183c6.176 0 11.716 11.172 11.716 11.183.752 1.044-51.07-103.686-70.816-143.576 6.734 28.742 26.005 64.058 26.005 64.058"></path><path fill="#4da258" d="M369.564 181.493a11.23 11.23 0 0 1 11.198-10.356c3.779 0 10.364 6.73 10.717 7.847l-1.545-3.097c0-.008 0-.016-.008-.016L336.731 69.489c1.364 3.45 3.729 12.249 4.497 32.776.835 22.335 16.647 56.34 24.245 71.482a11.187 11.187 0 0 1 4.015 7.746c.023.29.038.58.038.879 0-.298.016-.59.038-.88M302.612 203.971l.344-8.264h-1.53l.214 9.374c.038 1.196.059 7.02-.101 8.203-.067.495.184 1.171.652 1.171.415 0 .605-.558.559-1.044-.166-1.783-.212-7.65-.138-9.44M347.731 208.136l.428-10.28h-1.904l.267 11.662c.047 1.487.072 8.733-.126 10.208-.083.613.23 1.456.812 1.456.515 0 .751-.695.694-1.3-.207-2.218-.264-9.519-.171-11.746"></path><path fill="#82c56d" d="m302.612 175.331.344-8.264h-1.53l.214 9.374c.038 1.196.059 7.02-.101 8.203-.067.494.184 1.171.652 1.171.415 0 .605-.558.559-1.044-.166-1.783-.212-7.65-.138-9.44M347.731 179.497l.428-10.281h-1.904l.267 11.663c.047 1.487.072 8.732-.126 10.207-.083.614.23 1.457.812 1.457.515 0 .751-.695.694-1.3-.207-2.218-.264-9.52-.171-11.746M280.61 258.068l.428-10.281h-1.904l.267 11.663c.047 1.487.072 8.733-.126 10.207-.083.614.23 1.457.812 1.457.515 0 .75-.695.694-1.3-.207-2.218-.264-9.52-.171-11.746"></path><path fill="#4da258" d="m325.027 298.709.344-8.263h-1.53l.214 9.374c.037 1.195.059 7.018-.101 8.203-.067.494.184 1.17.652 1.17.415 0 .604-.558.559-1.044-.167-1.783-.212-7.651-.138-9.44M280.507 298.709l.344-8.263h-1.53l.214 9.374c.037 1.195.06 7.018-.1 8.203-.068.494.183 1.17.651 1.17.414 0 .604-.558.56-1.044-.168-1.783-.213-7.651-.139-9.44M370.146 302.875l.428-10.281h-1.904l.267 11.663c.046 1.487.072 8.732-.127 10.207-.082.614.231 1.456.812 1.456.516 0 .752-.694.695-1.3-.207-2.218-.264-9.52-.171-11.745M302.715 302.875l.428-10.281h-1.904l.266 11.663c.047 1.487.073 8.732-.126 10.207-.083.614.231 1.456.812 1.456.516 0 .752-.694.695-1.3-.207-2.218-.264-9.52-.17-11.745"></path><path fill="#82c56d" d="m325.027 258.687.344-8.263h-1.53l.214 9.373c.037 1.196.059 7.019-.101 8.204-.067.494.184 1.17.652 1.17.415 0 .604-.558.559-1.044-.167-1.783-.212-7.651-.138-9.44M370.146 262.853l.428-10.282h-1.904l.267 11.664c.046 1.487.072 8.732-.127 10.207-.082.614.231 1.456.812 1.456.516 0 .752-.694.695-1.299-.207-2.219-.264-9.52-.171-11.746M302.715 262.853l.428-10.282h-1.904l.266 11.664c.047 1.487.073 8.732-.126 10.207-.083.614.231 1.456.812 1.456.516 0 .752-.694.695-1.299-.207-2.219-.264-9.52-.17-11.746"></path><path fill="#4da258" d="m302.08 395.425.345-8.263h-1.531l.214 9.374c.038 1.196.059 7.018-.101 8.203-.067.494.185 1.17.652 1.17.415 0 .605-.557.559-1.044-.166-1.783-.212-7.65-.138-9.44M369.856 395.425l.344-8.263h-1.53l.214 9.374c.038 1.196.059 7.018-.101 8.203-.067.494.184 1.17.652 1.17.415 0 .604-.557.559-1.044-.166-1.783-.212-7.65-.138-9.44M257.56 395.425l.344-8.263h-1.53l.214 9.374c.038 1.196.06 7.018-.1 8.203-.068.494.183 1.17.651 1.17.415 0 .605-.557.56-1.044-.167-1.783-.213-7.65-.139-9.44M347.199 399.591l.428-10.28h-1.904l.267 11.662c.047 1.487.073 8.732-.126 10.207-.083.614.23 1.456.812 1.456.515 0 .75-.694.695-1.299-.207-2.219-.265-9.519-.172-11.746"></path><path fill="#9f5325" d="m347.553 460.306.344-8.264h-1.53l.214 9.374c.038 1.196.06 7.02-.1 8.203-.068.494.183 1.171.651 1.171.415 0 .604-.558.56-1.045-.167-1.782-.213-7.65-.139-9.439M324.896 464.471l.428-10.28h-1.904l.267 11.662c.047 1.487.073 8.732-.126 10.207-.083.614.23 1.457.812 1.457.515 0 .751-.695.695-1.3-.207-2.219-.265-9.519-.172-11.746"></path><path fill="#82c56d" d="m347.553 442.046.344-8.264h-1.53l.214 9.374c.038 1.196.06 7.02-.1 8.203-.068.495.183 1.171.651 1.171.415 0 .604-.558.56-1.044-.167-1.783-.213-7.65-.139-9.44M324.896 446.211l.428-10.28h-1.904l.267 11.662c.047 1.487.073 8.733-.126 10.208-.083.613.23 1.456.812 1.456.515 0 .751-.695.695-1.3-.207-2.218-.265-9.519-.172-11.746"></path><path fill="#4da258" d="m279.768 399.591.428-10.28h-1.904l.267 11.662c.047 1.487.072 8.732-.126 10.207-.083.614.23 1.456.812 1.456.515 0 .751-.694.694-1.299-.207-2.219-.264-9.519-.17-11.746"></path><path fill="#82c56d" d="m302.08 449.953.345-8.263h-1.531l.214 9.374c.038 1.196.059 7.018-.101 8.203-.067.494.185 1.17.652 1.17.415 0 .605-.557.559-1.044-.166-1.782-.212-7.65-.138-9.44M257.56 449.953l.344-8.263h-1.53l.214 9.374c.038 1.196.06 7.018-.1 8.203-.068.494.183 1.17.651 1.17.415 0 .605-.557.56-1.044-.167-1.782-.213-7.65-.139-9.44M279.768 454.119l.428-10.281h-1.904l.267 11.663c.047 1.487.072 8.732-.126 10.207-.083.614.23 1.456.812 1.456.515 0 .751-.694.694-1.3-.207-2.218-.264-9.518-.17-11.745M234.773 454.119l.428-10.281h-1.904l.267 11.663c.047 1.487.073 8.732-.126 10.207-.083.614.23 1.456.812 1.456.515 0 .751-.694.694-1.3-.207-2.218-.264-9.518-.171-11.745"></path><path fill="#4da258" d="m437.752 449.953.344-8.263h-1.53l.214 9.374c.037 1.196.06 7.018-.1 8.203-.068.494.183 1.17.651 1.17.414 0 .604-.557.56-1.044-.168-1.782-.213-7.65-.139-9.44"></path><path fill="#82c56d" d="m392.467 449.953.345-8.263h-1.53l.213 9.374c.038 1.196.06 7.018-.1 8.203-.068.494.184 1.17.651 1.17.415 0 .605-.557.56-1.044-.167-1.782-.213-7.65-.139-9.44"></path><path fill="#4da258" d="m415.44 454.119.429-10.281h-1.905l.267 11.663c.047 1.487.073 8.732-.126 10.207-.083.614.23 1.456.812 1.456.516 0 .75-.694.695-1.3-.207-2.218-.264-9.518-.171-11.745"></path><path fill="#82c56d" d="m302.08 343.045.345-8.263h-1.531l.214 9.373c.038 1.196.059 7.02-.101 8.204-.067.494.185 1.17.652 1.17.415 0 .605-.558.559-1.044-.166-1.783-.212-7.65-.138-9.44M369.856 343.045l.344-8.263h-1.53l.214 9.373c.038 1.196.059 7.02-.101 8.204-.067.494.184 1.17.652 1.17.415 0 .604-.558.559-1.044-.166-1.783-.212-7.65-.138-9.44M257.56 343.045l.344-8.263h-1.53l.214 9.373c.038 1.196.06 7.02-.1 8.204-.068.494.183 1.17.651 1.17.415 0 .605-.558.56-1.044-.167-1.783-.213-7.65-.139-9.44M347.199 347.211l.428-10.282h-1.904l.267 11.664c.047 1.487.073 8.732-.126 10.207-.083.613.23 1.456.812 1.456.515 0 .75-.695.695-1.299-.207-2.219-.265-9.52-.172-11.746M279.768 347.211l.428-10.282h-1.904l.267 11.664c.047 1.487.072 8.732-.126 10.207-.083.613.23 1.456.812 1.456.515 0 .751-.695.694-1.299-.207-2.219-.264-9.52-.17-11.746"></path><path fill="#ffcc5d" d="m335.002 40.546-6.182 18.753-20.195.618 15.867 12.57-4.945 19.165L335.002 79.7l17.104 10.922-5.357-19.147 14.837-12.382h-19.371l-7.213-18.547z"></path><path fill="#f39821" d="m308.626 59.917 26.48 8.449-10.613 4.121-15.867-12.57zM319.547 91.653l15.559-23.286-.104 11.334-15.455 11.952zM352.107 90.623l-17.001-22.256 11.644 3.109 5.357 19.147zM361.586 59.093l-26.48 9.273 7.109-9.273h19.371zM335.002 40.546l.104 27.82-6.286-9.067 6.182-18.753z"></path><path fill="#cf2633" d="M309.706 233.513a8.812 8.812 0 1 1-8.812-8.812 8.812 8.812 0 0 1 8.812 8.812"></path><path fill="#303443" d="M300.894 242.825v-1a8.321 8.321 0 0 0 8.312-8.312h1a9.323 9.323 0 0 1-9.312 9.312Z"></path><path fill="#f15b43" d="M292.083 233.513a8.79 8.79 0 0 0 .414 2.67 8.81 8.81 0 0 0 10.875-11.122 8.798 8.798 0 0 0-11.29 8.452"></path><path fill="#cf2633" d="M364.83 151.062a8.812 8.812 0 1 1-8.811-8.812 8.812 8.812 0 0 1 8.812 8.812"></path><path fill="#f15b43" d="M347.208 151.062a8.783 8.783 0 0 0 .414 2.669 8.81 8.81 0 0 0 10.875-11.122 8.8 8.8 0 0 0-11.29 8.453"></path><path fill="#303443" d="M347.145 153.882a9.317 9.317 0 0 1 4.276-10.919l.494.87a8.319 8.319 0 0 0-3.817 9.747Z"></path><path fill="#f39821" d="M332.26 116.511a5.851 5.851 0 1 1-5.853-5.852 5.853 5.853 0 0 1 5.852 5.852"></path><path fill="#ffcc5d" d="M320.556 116.511a5.86 5.86 0 0 0 .275 1.772 5.851 5.851 0 0 0 7.222-7.385 5.843 5.843 0 0 0-7.497 5.613"></path><path fill="#f39821" d="M374.522 233.513a5.851 5.851 0 1 1-5.852-5.852 5.853 5.853 0 0 1 5.852 5.852"></path><path fill="#ffcc5d" d="M362.819 233.513a5.867 5.867 0 0 0 .275 1.773 5.85 5.85 0 0 0 7.22-7.385 5.794 5.794 0 0 0-1.643-.24 5.853 5.853 0 0 0-5.852 5.852"></path><path fill="#f39821" d="M306.746 320.521a5.851 5.851 0 1 1-5.852-5.852 5.853 5.853 0 0 1 5.852 5.852"></path><path fill="#ffcc5d" d="M295.043 320.521a5.867 5.867 0 0 0 .275 1.773 5.851 5.851 0 0 0 7.222-7.385 5.84 5.84 0 0 0-7.497 5.612"></path><path fill="#f39821" d="M368.67 370.7a5.852 5.852 0 1 1-5.852-5.852 5.853 5.853 0 0 1 5.852 5.852"></path><path fill="#ffcc5d" d="M356.967 370.7a5.867 5.867 0 0 0 .275 1.773 5.85 5.85 0 0 0 7.221-7.385 5.794 5.794 0 0 0-1.644-.24 5.853 5.853 0 0 0-5.852 5.852"></path><path fill="#cf2633" d="M396.892 304.256a8.812 8.812 0 1 1-8.813-8.812 8.813 8.813 0 0 1 8.813 8.812"></path><path fill="#f15b43" d="M379.268 304.256a8.825 8.825 0 0 0 .414 2.67 8.81 8.81 0 0 0 10.875-11.122 8.798 8.798 0 0 0-11.289 8.452"></path><path fill="#cf2633" d="M276.91 385.363a8.812 8.812 0 1 1-8.812-8.812 8.811 8.811 0 0 1 8.812 8.812"></path><path fill="#f15b43" d="M259.287 385.363a8.79 8.79 0 0 0 .414 2.67 8.81 8.81 0 0 0 10.875-11.122 8.798 8.798 0 0 0-11.29 8.452"></path><path fill="#cf2633" d="M396.892 425.156a8.812 8.812 0 1 1-8.812-8.812 8.812 8.812 0 0 1 8.812 8.812"></path><path fill="#f15b43" d="M379.268 425.156a8.825 8.825 0 0 0 .414 2.67 8.81 8.81 0 0 0 10.875-11.122 8.798 8.798 0 0 0-11.289 8.452"></path><path fill="#fdeba9" d="M297.934 161.785c4.43 0 4.437-6.885 0-6.885-4.43 0-4.437 6.885 0 6.885M316.996 151.613c4.43 0 4.437-6.885 0-6.885-4.43 0-4.437 6.885 0 6.885M335.106 138.654c4.43 0 4.437-6.884 0-6.884-4.43 0-4.437 6.884 0 6.884"></path><path fill="#e9d495" d="M349.076 123.968c4.43 0 4.437-6.885 0-6.885-4.43 0-4.437 6.885 0 6.885"></path><path fill="#fdeba9" d="M294.6 198.867c4.43 0 4.436-6.885 0-6.885-4.43 0-4.438 6.885 0 6.885"></path><path fill="#e9d495" d="M294.6 191.982a3.25 3.25 0 0 0-3.322 3.405 11.158 11.158 0 0 1 6.062 2.048c1.301-2.015.398-5.453-2.74-5.453"></path><path fill="#fdeba9" d="M321.035 213.185c4.43 0 4.437-6.884 0-6.884-4.43 0-4.437 6.884 0 6.884M354.445 222.364c4.43 0 4.437-6.884 0-6.884-4.43 0-4.437 6.884 0 6.884"></path><path fill="#e9d495" d="M387.489 233.378c4.429 0 4.437-6.884 0-6.884-4.43 0-4.437 6.884 0 6.884"></path><path fill="#fdeba9" d="M254.764 323.513c4.43 0 4.437-6.884 0-6.884-4.43 0-4.437 6.884 0 6.884M291.663 308.644c4.43 0 4.437-6.884 0-6.884-4.43 0-4.437 6.884 0 6.884"></path><path fill="#e9d495" d="M324.706 291.572c4.43 0 4.437-6.885 0-6.885-4.43 0-4.437 6.885 0 6.885M354.445 279.34c4.43 0 4.437-6.885 0-6.885-4.43 0-4.437 6.885 0 6.885M381.43 259.63c4.43 0 4.437-6.885 0-6.885-4.43 0-4.437 6.884 0 6.884M265.228 362.615c4.429 0 4.437-6.884 0-6.884-4.43 0-4.437 6.884 0 6.884M292.764 379.687c4.43 0 4.437-6.884 0-6.884-4.43 0-4.437 6.884 0 6.884"></path><path fill="#fdeba9" d="M325.256 398.962c4.43 0 4.437-6.884 0-6.884-4.43 0-4.437 6.884 0 6.884M360.502 416.036c4.43 0 4.437-6.885 0-6.885-4.429 0-4.437 6.885 0 6.885M402.358 437.513c4.43 0 4.437-6.884 0-6.884-4.43 0-4.437 6.884 0 6.884"></path><path fill="#e9d495" d="M435.401 443.572c4.43 0 4.437-6.885 0-6.885-4.429 0-4.437 6.885 0 6.885"></path><path fill="#303443" d="M414.646 396.84h-1a10.738 10.738 0 0 0-21.475 0h-1a10.749 10.749 0 0 0-10.736-10.737v-1a11.758 11.758 0 0 1 11.236 8.343 11.739 11.739 0 0 1 22.975 3.394Z"></path><path fill="#303443" d="M414.646 396.84h-1a11.75 11.75 0 0 1 11.737-11.736 6.27 6.27 0 0 1 2.191.42l-.35.937a5.203 5.203 0 0 0-1.841-.357 10.749 10.749 0 0 0-10.737 10.736ZM276.677 388.987l-.92-.39a8.315 8.315 0 0 0-7.66-11.546v-1a9.314 9.314 0 0 1 8.58 12.936ZM335.106 68.866a.5.5 0 0 1-.396-.804l7.11-9.273.792.608-6.089 7.943 24.898-8.718.33.943-26.48 9.273a.493.493 0 0 1-.165.028Z"></path><path fill="#ffcc5d" d="M402.327 429.578h69.479v65.88h-69.479z"></path><path fill="#f39821" d="M402.326 432.639h69.48v12.6h-69.48z"></path><path fill="#f15b43" d="M428.366 471.519a1.5 1.5 0 0 0 0-3 1.5 1.5 0 0 0 0 3M455.726 474.64a1.5 1.5 0 0 0 0-3 1.5 1.5 0 0 0 0 3M465.086 457.119a1.5 1.5 0 0 0 0-3 1.5 1.5 0 0 0 0 3M417.086 491.918a1.5 1.5 0 0 0 0-3 1.5 1.5 0 0 0 0 3M414.207 451.329a.75.75 0 0 0 0-1.5.75.75 0 0 0 0 1.5M417.327 465.729a.75.75 0 0 0 0-1.5.75.75 0 0 0 0 1.5M411.566 479.409a.75.75 0 0 0 0-1.5.75.75 0 0 0 0 1.5M442.526 451.329a.75.75 0 0 0 0-1.5.75.75 0 0 0 0 1.5M442.526 465.248a.75.75 0 0 0 0-1.5.75.75 0 0 0 0 1.5M445.167 481.09a.75.75 0 0 0 0-1.5.75.75 0 0 0 0 1.5M431.726 487.09a.75.75 0 0 0 0-1.5.75.75 0 0 0 0 1.5M459.327 488.288a.75.75 0 0 0 0-1.5.75.75 0 0 0 0 1.5M429.327 463.72c5.79 0 5.8-9 0-9-5.792 0-5.801 9 0 9M422.127 485.079c5.79 0 5.8-9 0-9-5.791 0-5.801 9 0 9M451.646 460.84c5.791 0 5.801-9 0-9-5.791 0-5.801 9 0 9M466.486 475.239c5.79 0 5.8-9 0-9-5.791 0-5.801 9 0 9M448.766 494.84c5.791 0 5.801-9 0-9-5.79 0-5.8 9 0 9M408.287 464.279c5.79 0 5.8-9 0-9-5.792 0-5.801 9 0 9M435.566 429.578h3v65.881h-3z"></path><path fill="#f15b43" d="M399.493 429.578h75.146v12.601h-75.146z"></path><path fill="#f15b43" d="M437.003 430.693a8.677 8.677 0 0 1-2.887-.899 33.944 33.944 0 0 0-7.128-2.283 23.7 23.7 0 0 0-7.188-.527 21.687 21.687 0 0 0-3.493.635 7.355 7.355 0 0 1-4.362.138 8.561 8.561 0 0 1-1.597-.678 7.668 7.668 0 0 1-2.612 1.118 6.397 6.397 0 0 1-4.86-.995 1 1 0 0 1 1.14-1.643 4.373 4.373 0 0 0 3.3.683 5.779 5.779 0 0 0 1.24-.434c-1.242-1.133-2.015-2.528-1.697-3.758a2.72 2.72 0 0 1 2.659-1.917 2.54 2.54 0 0 1 1.762.98 4.334 4.334 0 0 1 .961 3.091 3.444 3.444 0 0 1-.445 1.366 6.382 6.382 0 0 0 .73.273 5.387 5.387 0 0 0 3.298-.164 23.739 23.739 0 0 1 3.79-.687 22.32 22.32 0 0 1 4.497.036 10.22 10.22 0 0 1-2.408-2.12c-2.684-3.502-3.484-5.895-2.445-7.318 1.21-1.656 4.183-1.003 6.313-.37 5.98 1.78 9.177 6.788 11.087 9.78 1.406 2.201 2.519 3.943 1.563 5.118l-.038.045a1.465 1.465 0 0 1-1.18.53Zm-15.165-14.156c-.78 0-.953.217-.966.234-.006.007-.577 1.013 2.42 4.92 1.167 1.527 5.23 4.061 12.896 6.398-.354-.664-.873-1.479-1.215-2.013-1.874-2.935-4.706-7.372-9.971-8.938a11.706 11.706 0 0 0-3.164-.6Zm-12.475 5.59a.737.737 0 0 0-.567.42c-.1.386.408 1.203 1.3 1.957a1.458 1.458 0 0 0 .157-.51 2.341 2.341 0 0 0-.504-1.594.68.68 0 0 0-.371-.272Z"></path><path fill="#f15b43" d="M438.25 430.692a1.471 1.471 0 0 1-1.179-.526l-.04-.048c-.955-1.172.158-2.915 1.563-5.118 1.91-2.992 5.11-8.001 11.087-9.778 2.133-.637 5.104-1.287 6.313.368 1.038 1.42.238 3.813-2.443 7.316a10.257 10.257 0 0 1-2.41 2.122 22.247 22.247 0 0 1 4.498-.036 23.728 23.728 0 0 1 3.79.687 5.398 5.398 0 0 0 3.298.164 6.382 6.382 0 0 0 .73-.273 3.44 3.44 0 0 1-.445-1.364 4.33 4.33 0 0 1 .96-3.092 2.546 2.546 0 0 1 1.767-.982 2.716 2.716 0 0 1 2.656 1.919c.316 1.23-.457 2.625-1.7 3.757a5.785 5.785 0 0 0 1.243.434 4.368 4.368 0 0 0 3.3-.684 1 1 0 1 1 1.137 1.644 6.404 6.404 0 0 1-4.858.995 7.664 7.664 0 0 1-2.613-1.118 8.59 8.59 0 0 1-1.596.678 7.352 7.352 0 0 1-4.36-.137 21.573 21.573 0 0 0-3.496-.636 23.759 23.759 0 0 0-7.181.526 33.86 33.86 0 0 0-7.133 2.284 8.669 8.669 0 0 1-2.888.898Zm15.165-14.155a11.69 11.69 0 0 0-3.162.6c-5.265 1.567-8.099 6.004-9.974 8.94-.34.533-.86 1.348-1.214 2.012 7.664-2.336 11.728-4.871 12.897-6.398 2.993-3.909 2.424-4.913 2.417-4.921-.012-.016-.186-.233-.964-.233Zm12.478 5.59h-.015a.683.683 0 0 0-.375.273 2.341 2.341 0 0 0-.503 1.594 1.453 1.453 0 0 0 .157.51c.89-.753 1.399-1.571 1.3-1.955a.738.738 0 0 0-.564-.422Z"></path><path fill="#cf2633" d="M435.542 442.179h2.97v3.06h-2.97z"></path><path fill="#1b5490" d="M353.329 503.979h-34.362a4 4 0 0 1-3.963-3.452l-4.523-32.725h51.333l-4.523 32.725a4 4 0 0 1-3.962 3.452"></path><path fill="#0e395c" d="M363.814 479.979h-55.333a2 2 0 0 1-2-2v-8.177a2 2 0 0 1 2-2h55.333a2 2 0 0 1 2 2v8.177a2 2 0 0 1-2 2"></path></svg>