<svg xmlns="http://www.w3.org/2000/svg" data-name="Layer 1" viewBox="0 0 700 550" id="christmas-door"><path fill="#edf2fa" d="M230.004 488.771c-34.626-16.484-73.688-55.703-71.718-96.805 2.175-45.379 52.687-58.003 49.307-100.627-2.401-30.273-28.693-34.175-39.244-67.42-15.057-47.437 17.824-104.546 48.3-133.835 76.006-73.042 225.632-58.172 267.668 6.04 41.518 63.417-22.487 174.091 6.039 188.17 17.059 8.421 40.852-30.718 63.394-22.137 28.42 10.82 36.467 90.488 6.638 150-5.136 10.245-27.016 51.06-74.145 72.838-28.064 12.968-39.345 7.294-133.747 8.604-89.075 1.237-98.57 6.561-122.492-4.828"></path><path fill="#843f1d" d="m247.575 479.661-1.324-363.124 83.041.141 48.119-.871 84.987 1.256 1.728 363.409"></path><path fill="#d27c2a" d="m253.591 479.688-.648-338.421 79.249 1.172 44.829-.227 78.702 1.164 1.303 336.991"></path><path fill="#9f5325" d="m272.778 167.675 164.878.361-1.615 303.668-163.939.437.676-304.466z"></path><path fill="#9f5325" d="m279.743 177.277 148.659 2.198-1.462 283.68-145.42.519-1.777-286.397z"></path><path fill="#fff" d="M360.539 314.53h54.9v137.809h-54.9z"></path><path fill="#d27c2a" d="m331.574 87.364 40.444.598-10.81 42.597-21.963-.325-7.671-42.87z"></path><path fill="#afc4db" d="M241.534 451.12h-.008l-77.336-1.144a.5.5 0 0 1 .008-1h.008l77.336 1.144a.5.5 0 0 1-.008 1Z"></path><path fill="#843f1d" d="m481.573 506.928-253.179.234 1.61-18.39a9.999 9.999 0 0 1 10.008-9.129l230.6 1.076a10 10 0 0 1 9.934 9.391Z"></path><path fill="#9f5325" d="m337.94 94.295 27.509.406-7.353 28.976-14.938-.222-5.218-29.16z"></path><path fill="#4c4c4b" d="m258.315 146.952 75.81-.296.004 1-75.81.296z"></path><path fill="#afc4db" d="M243.908 247.478a.502.502 0 0 1-.407-.209l-7.141-9.997a.502.502 0 0 1-.093-.299l1.92-129.755a.5.5 0 0 1 .5-.492h.007l83.256 1.23a.5.5 0 0 1-.008 1h-.008l-82.756-1.222-1.909 129.09 7.046 9.863a.5.5 0 0 1-.407.791ZM466.834 236.09a.5.5 0 0 1-.482-.634l3.832-13.73 1.634-110.597-91.318-1.35a.5.5 0 0 1 .007-1h.008l91.819 1.357a.5.5 0 0 1 .492.508l-1.643 111.162a.512.512 0 0 1-.018.127l-3.85 13.792a.5.5 0 0 1-.481.366Z"></path><path fill="#4c4c4b" d="m260.317 477.468-2.512-331.564 15.379 21.48-.812.582-13.543-18.914 2.488 328.409-1 .007zM438.066 168.322l-.82-.57 12.801-18.409-67.924-1.003.015-1 69.804 1.031-13.876 19.951z"></path><path fill="#afc4db" d="M246.823 273.735h-.008l-30.266-.447a.5.5 0 0 1 .008-1h.008l30.266.447a.5.5 0 0 1-.008 1ZM247.044 334.574h-.007l-20.183-.298a.5.5 0 0 1 .008-1h.008l20.182.298a.5.5 0 0 1-.008 1ZM484.44 259.74h-.008l-17.307-.255a.5.5 0 0 1 .007-1h.008l17.308.256a.5.5 0 0 1-.008 1ZM512.673 334.348h-.007l-46.37-.685a.5.5 0 0 1 .008-1h.008l46.37.685a.5.5 0 0 1-.009 1ZM546.376 334.846h-.007l-19.858-.293a.5.5 0 0 1 .008-1h.008l19.857.293a.5.5 0 0 1-.008 1ZM502.305 382.419h-.008l-36.713-.543a.5.5 0 0 1 .007-1h.008l36.714.543a.5.5 0 0 1-.008 1ZM197.517 211.577h-.008l-76.272-1.128a.5.5 0 0 1 .008-1h.007l76.273 1.128a.5.5 0 0 1-.008 1Z"></path><path fill="#4c4c4b" d="m343.851 253.101 1-.002.124 44.43-1 .002z"></path><path fill="#843f1d" d="M403.947 336.437c11.581.172 11.866-17.826.267-17.998-11.58-.17-11.867 17.827-.267 17.998"></path><path fill="#4c4c4b" d="m445.456 480.194 5.177-331.343 1 .015-5.177 331.344z"></path><path fill="#fff" d="M292.117 314.53h54.9v137.809h-54.9zM292.117 191.233h54.9v104.198h-54.9zM360.539 191.233h54.9v104.198h-54.9z"></path><path fill="#cfcfce" d="m303.29 352.51 20.437-22.328.738.676-20.437 22.328zM305.683 369.088l20.437-22.327.739.676-20.438 22.327zM376.204 412.196l20.438-22.327.738.675-20.437 22.328zM378.598 428.775l20.438-22.328.738.676-20.437 22.327zM303.29 217.305l20.436-22.327.738.676-20.436 22.327zM305.683 233.883l20.437-22.327.738.676-20.437 22.327zM376.205 276.992l20.436-22.327.739.676-20.437 22.327zM378.232 293.233l20.435-22.328 1.475 1.35-20.435 22.328z"></path><path fill="#82c56d" d="M353.023 214.128c-28.637-.424-52.214 23.597-52.659 53.652-.444 30.055 22.412 54.763 51.05 55.186 28.639.424 52.216-23.597 52.66-53.653.445-30.054-22.412-54.762-51.051-55.185m.144 83.742c-16.186-.24-29.116-13.084-28.886-28.691.232-15.604 13.536-28.061 29.722-27.822 16.181.24 29.115 13.085 28.885 28.689-.231 15.606-13.54 28.063-29.721 27.824"></path><path fill="#4da258" d="M379.106 243.338c-20.149-15.9-28.699-1.823-28.699-1.823l-.003.008a30.572 30.572 0 0 1 3.598-.166c16.181.24 29.116 13.085 28.885 28.688-.19 12.93-9.363 23.69-21.704 26.867.044-.002.085 0 .13-.003 35.03-1.64 37.943-37.669 17.793-53.57M324.281 269.178c-7.022-37.219 8.238-50.206 8.238-50.206-.255-.147-.506-.279-.759-.419-18.198 8.237-31.069 27.095-31.396 49.227-.418 28.262 19.77 51.794 45.994 54.852 3.762-16.902-9.43-16.866-17.905-38.51a27.395 27.395 0 0 1-4.172-14.944"></path><path fill="#f15b43" d="M333.93 248.632a1.636 1.636 0 0 0 .555.002 2.056 2.056 0 0 0 .49-.124 2.95 2.95 0 0 0 .813-.463 4.365 4.365 0 0 0 .655-.62 6.7 6.7 0 0 0 .563-.704 21.752 21.752 0 0 0 1.827-3.255c1.089-2.302 2.044-4.742 3.035-7.18q1.468-3.67 3.02-7.375l.2-.459.243-.527c.173-.366.334-.734.524-1.097.368-.724.767-1.442 1.187-2.155q.648-1.059 1.379-2.09a32.568 32.568 0 0 1 1.583-2c.28-.326.569-.644.872-.956q.444-.47.92-.923a29.068 29.068 0 0 1 2.005-1.718 23.606 23.606 0 0 1 4.607-2.747 20.831 20.831 0 0 1 10.452-1.755 19.092 19.092 0 0 1 9.45 3.524 14.698 14.698 0 0 1 1.89 1.645 11.624 11.624 0 0 1 1.567 1.973 7.599 7.599 0 0 1 1.015 2.34 3.236 3.236 0 0 1-.272 2.427 2.983 2.983 0 0 0-1.2-1.579 7.627 7.627 0 0 0-1.66-.869 14.535 14.535 0 0 0-1.783-.54q-.912-.198-1.82-.308a19.65 19.65 0 0 0-6.887.406 17.033 17.033 0 0 0-5.623 2.506c-.411.29-.821.574-1.207.902-.396.308-.774.654-1.148 1-.373.356-.74.717-1.092 1.111-.181.188-.358.383-.53.588-.178.196-.343.411-.515.618-.345.413-.674.853-.998 1.302-.33.448-.645.913-.953 1.393q-.471.717-.911 1.475c-.156.245-.295.51-.443.763l-.502.886a50.584 50.584 0 0 1-5.015 7.343 36.284 36.284 0 0 1-3.132 3.361 26.686 26.686 0 0 1-3.723 2.97 14.959 14.959 0 0 1-4.596 2.091 9.504 9.504 0 0 1-1.321.207 6.276 6.276 0 0 1-1.362-.059 3.957 3.957 0 0 1-1.274-.44 2.166 2.166 0 0 1-.884-.89M302.14 254.428a6.217 6.217 0 0 0 .883 2.703 4.715 4.715 0 0 0 .712.901 6.236 6.236 0 0 0 .773.675 13.1 13.1 0 0 0 1.668 1.012c.566.303 1.188.587 1.812.87 1.25.576 2.593 1.142 3.993 1.748.357.15.71.296 1.057.46.366.146.723.303 1.077.47.364.151.73.315 1.092.48l.586.271.638.302a34.215 34.215 0 0 1 9.629 6.671 21.86 21.86 0 0 1 2.114 2.5 13.558 13.558 0 0 1 1.738 3.205 6.547 6.547 0 0 1 .275 4.053 4.53 4.53 0 0 1-.875 1.632 5.76 5.76 0 0 1-1.25 1.102 13.612 13.612 0 0 0-.427-1.486 3.222 3.222 0 0 0-.622-1.064 4.227 4.227 0 0 0-1.665-.94 41.122 41.122 0 0 0-2.032-.689l-2.267-.713a130.832 130.832 0 0 1-4.76-1.59 81.382 81.382 0 0 1-4.8-1.913l-.597-.264-.304-.136-.343-.165c-.456-.224-.914-.436-1.362-.683q-.678-.372-1.342-.77c-.445-.276-.88-.575-1.314-.869a20.634 20.634 0 0 1-4.786-4.62 15.178 15.178 0 0 1-1.8-3.178 11.086 11.086 0 0 1-.85-3.783c-.124-2.648 1.17-5.36 3.35-6.192"></path><path fill="#cf2633" d="m328.068 283.478-.014-.02.007.025.007-.005M321.049 278.591l2.267.713c.722.23 1.429.46 2.032.69a6.028 6.028 0 0 1 1.237.581 27.285 27.285 0 0 1-2.303-11.22 35.935 35.935 0 0 0-7.851-5.035l-.638-.302-.586-.27a35.187 35.187 0 0 0-1.093-.482q-.53-.249-1.076-.47c-.346-.163-.7-.31-1.057-.459-1.4-.606-2.743-1.172-3.994-1.748a30.878 30.878 0 0 1-1.811-.87 13.1 13.1 0 0 1-1.668-1.012 6.165 6.165 0 0 1-.773-.676 4.678 4.678 0 0 1-.712-.9 6.227 6.227 0 0 1-.88-2.685 56.972 56.972 0 0 0-1.721 11.556 17.6 17.6 0 0 0 1.019 1.578 20.655 20.655 0 0 0 4.786 4.621c.433.294.869.593 1.314.87q.663.398 1.342.77c.448.246.906.458 1.362.682l.343.165.304.136.596.264a81.686 81.686 0 0 0 4.802 1.913c1.599.578 3.212 1.097 4.759 1.59"></path><path fill="#f15b43" d="M317.112 308.658a7.503 7.503 0 0 0 2.153 2.682 3.095 3.095 0 0 0 1.16.51 3.01 3.01 0 0 0 1.028 0 9.667 9.667 0 0 0 2.082-.657 28.433 28.433 0 0 0 2.408-1.173c1.68-.91 3.423-1.987 5.222-3.11a429.08 429.08 0 0 1 5.603-3.414 269.545 269.545 0 0 1 5.7-3.337c1.953-1.098 3.957-2.213 6.182-3.256a39.548 39.548 0 0 1 3.518-1.472 21.56 21.56 0 0 1 3.977-1.05 12.776 12.776 0 0 1 4.27.014 8.872 8.872 0 0 1 3.757 1.587 17.713 17.713 0 0 0-3.226 1.7 17.101 17.101 0 0 0-2.409 2.062c-1.448 1.46-2.836 3.125-4.427 4.796a55.651 55.651 0 0 1-5.207 4.908 46.702 46.702 0 0 1-6.079 4.253 46.144 46.144 0 0 1-6.714 3.258 29.76 29.76 0 0 1-7.802 2 18.213 18.213 0 0 1-4.495-.056 10.684 10.684 0 0 1-4.763-1.826 7.012 7.012 0 0 1-1.843-1.973 6.276 6.276 0 0 1-.095-6.446"></path><path fill="#cf2633" d="M339.34 301.968q-1.293.76-2.571 1.527a429.168 429.168 0 0 0-5.604 3.415c-1.8 1.122-3.543 2.201-5.221 3.11-.834.452-1.652.851-2.41 1.173a9.746 9.746 0 0 1-2.081.658 3.092 3.092 0 0 1-.656.038 51.246 51.246 0 0 0 10.609 6.55 32.748 32.748 0 0 0 4.705-1.48 45.979 45.979 0 0 0 6.713-3.259q1.645-.969 3.206-2.065c-1.308-3.435-3.794-6.204-6.69-9.667"></path><path fill="#f15b43" d="M378.521 254.659a15.207 15.207 0 0 0 .747 1.876c.265.589.56 1.15.85 1.696a43.623 43.623 0 0 0 1.874 3.095 84.935 84.935 0 0 0 4.056 5.597c1.388 1.799 2.834 3.549 4.286 5.31l2.194 2.645.638.8.643.836c.413.579.83 1.153 1.217 1.753a30.81 30.81 0 0 1 3.73 7.946 22.719 22.719 0 0 1 .865 9.188 17.904 17.904 0 0 1-1.19 4.61 14.79 14.79 0 0 1-2.469 4.044 11.586 11.586 0 0 1-3.627 2.839 7.967 7.967 0 0 1-4.233.89 11.617 11.617 0 0 0 2.805-6.37 15.742 15.742 0 0 0-.476-5.838 36.452 36.452 0 0 0-5.296-10.767c-.304-.44-.618-.882-.917-1.331l-.485-.66-.493-.695q-1.198-1.635-2.254-3.392a36.27 36.27 0 0 1-3.435-7.533 26.767 26.767 0 0 1-1.343-8.366 18.279 18.279 0 0 1 .528-4.274 13.576 13.576 0 0 1 .682-2.047 7.395 7.395 0 0 1 1.103-1.852"></path><path fill="#cf2633" d="M390.334 272.233c-1.451-1.761-2.897-3.512-4.285-5.311a85.023 85.023 0 0 1-4.057-5.596q-.447-.683-.885-1.392a27.336 27.336 0 0 1 .103 19.151 44.46 44.46 0 0 0 2.03 3.038l.493.696.486.659c.299.448.612.891.917 1.331q.378.565.741 1.132a26.363 26.363 0 0 0 5.423-12.543ZM378.47 254.724c.053.08.105.16.156.241-.035-.1-.071-.2-.104-.306-.02.021-.033.044-.051.065"></path><path fill="#f15b43" d="M391.832 245.206a4.683 4.683 0 1 1-4.613-4.752 4.682 4.682 0 0 1 4.613 4.752"></path><path fill="#cf2633" d="M319.317 290.557a4.684 4.684 0 1 1-4.614-4.752 4.684 4.684 0 0 1 4.614 4.752"></path><path fill="#f15b43" d="M381.371 303a4.683 4.683 0 1 1-4.613-4.751 4.682 4.682 0 0 1 4.613 4.752M329.383 240.993a4.684 4.684 0 1 1-4.614-4.752 4.684 4.684 0 0 1 4.614 4.752"></path><path fill="#cf2633" d="M322.645 245.129a60.69 60.69 0 0 1 1.298-8.822 4.677 4.677 0 0 0-1.298 8.822"></path><path fill="#ffcc5d" d="M363.075 313.727a2.992 2.992 0 1 1-2.947-3.035 2.991 2.991 0 0 1 2.947 3.035M398.453 267.285a2.992 2.992 0 1 1-2.947-3.036 2.991 2.991 0 0 1 2.947 3.036M374.817 233.989a2.992 2.992 0 1 1-2.947-3.036 2.991 2.991 0 0 1 2.947 3.036M343.265 222.123a2.992 2.992 0 1 1-2.947-3.035 2.991 2.991 0 0 1 2.947 3.035"></path><path fill="#f39821" d="M315.164 254.62a2.992 2.992 0 1 1-2.947-3.035 2.991 2.991 0 0 1 2.947 3.036M331.374 296.467a2.992 2.992 0 1 1-2.947-3.036 2.991 2.991 0 0 1 2.947 3.036"></path><path fill="#e9d495" d="M381.564 291.303a1.363 1.363 0 0 0 0-2.725 1.363 1.363 0 0 0 0 2.725"></path><path fill="#fdeba9" d="M349.314 316.803a1.363 1.363 0 0 0 0-2.724 1.363 1.363 0 0 0 0 2.724M365.081 304.122a1.363 1.363 0 0 0 0-2.725 1.363 1.363 0 0 0 0 2.725M400.442 276.77a1.363 1.363 0 0 0 0-2.726 1.363 1.363 0 0 0 0 2.725"></path><path fill="#e9d495" d="M386.95 260.037a1.363 1.363 0 0 0 0-2.725 1.363 1.363 0 0 0 0 2.725"></path><path fill="#fdeba9" d="M395.763 248.236a1.363 1.363 0 0 0 0-2.725 1.363 1.363 0 0 0 0 2.725M382.42 233.376a1.363 1.363 0 0 0 0-2.725 1.363 1.363 0 0 0 0 2.725M335.595 242.447a1.363 1.363 0 0 0 0-2.724 1.363 1.363 0 0 0 0 2.724M332.432 226.317a1.363 1.363 0 0 0 0-2.724 1.363 1.363 0 0 0 0 2.724M347.914 218.806a1.363 1.363 0 0 0 0-2.725 1.363 1.363 0 0 0 0 2.725"></path><path fill="#e9d495" d="M315.438 237.465a1.363 1.363 0 0 0 0-2.725 1.363 1.363 0 0 0 0 2.725M318.595 261.5a1.363 1.363 0 0 0 0-2.725 1.363 1.363 0 0 0 0 2.725M305.256 277.028a1.363 1.363 0 0 0 0-2.725 1.363 1.363 0 0 0 0 2.725M322.473 286.445a1.363 1.363 0 0 0 0-2.724 1.363 1.363 0 0 0 0 2.724M319.087 305.051a1.363 1.363 0 0 0 0-2.724 1.363 1.363 0 0 0 0 2.724"></path><path fill="#fdeba9" d="M338.139 299.786a1.363 1.363 0 0 0 0-2.724 1.363 1.363 0 0 0 0 2.724M374.967 314.284a1.363 1.363 0 0 0 0-2.725 1.363 1.363 0 0 0 0 2.725"></path><path fill="#e9d495" d="M361.22 238.142a1.363 1.363 0 0 0 0-2.725 1.363 1.363 0 0 0 0 2.725"></path><path fill="#4da258" d="m330.462 219.162.448.667 1.61-.856a3.462 3.462 0 0 1 1.15-1.235q-1.63.658-3.208 1.424"></path><path fill="#cf2633" d="M384.245 264.545a77.984 77.984 0 0 1-2.253-3.22 44.204 44.204 0 0 1-1.874-3.094 28.862 28.862 0 0 1-.85-1.697 15.213 15.213 0 0 1-.747-1.876 7.41 7.41 0 0 0-1.102 1.852 13.555 13.555 0 0 0-.683 2.048 18.317 18.317 0 0 0-.527 4.273 26.738 26.738 0 0 0 1.343 8.366 36.3 36.3 0 0 0 3.434 7.534 43.91 43.91 0 0 0 1.261 1.97c1.821-1.472 3.897-10.042 3.897-10.042s-.832-2.716-1.899-6.114"></path><path fill="#516eb5" d="M285.084 159.999c6.598-7.917 0-19.212 0-19.212s-6.599 11.295 0 19.212"></path><path fill="#1b202b" d="M285.096 142.274a2.52 2.52 0 0 1 .833.144l-.104-1.748h-1.481l-.104 1.755a2.547 2.547 0 0 1 .856-.151"></path><path fill="#82c56d" d="M308.742 151.212c6.6-7.918 0-19.213 0-19.213s-6.599 11.295 0 19.213"></path><path fill="#1b202b" d="M308.754 133.487a2.547 2.547 0 0 1 .833.144l-.104-1.748h-1.481l-.104 1.755a2.55 2.55 0 0 1 .856-.151"></path><path fill="#f15b43" d="M318.982 138.133c6.6-7.918 0-19.212 0-19.212s-6.599 11.294 0 19.212"></path><path fill="#1b202b" d="M318.994 120.409a2.52 2.52 0 0 1 .833.144l-.104-1.75h-1.48l-.105 1.756a2.549 2.549 0 0 1 .856-.15"></path><path fill="#ffcb5d" d="M333.106 152.42c6.6-7.918 0-19.213 0-19.213s-6.598 11.295 0 19.213"></path><path fill="#1b202b" d="M333.118 134.695a2.528 2.528 0 0 1 .834.145l-.105-1.75h-1.48l-.105 1.756a2.555 2.555 0 0 1 .856-.151"></path><path fill="#516eb5" d="M356.06 160.058c6.598-7.918 0-19.213 0-19.213s-6.6 11.295 0 19.213"></path><path fill="#1b202b" d="M356.071 142.333a2.522 2.522 0 0 1 .833.145l-.104-1.75h-1.48l-.105 1.756a2.547 2.547 0 0 1 .856-.151"></path><path fill="#82c56d" d="M379.718 151.212c6.598-7.918 0-19.213 0-19.213s-6.6 11.295 0 19.213"></path><path fill="#1b202b" d="M379.73 133.487a2.547 2.547 0 0 1 .832.144l-.104-1.748h-1.48l-.105 1.755a2.547 2.547 0 0 1 .856-.151"></path><path fill="#ffcb5d" d="M262.132 152.42c6.598-7.918 0-19.213 0-19.213s-6.6 11.295 0 19.213"></path><path fill="#1b202b" d="M262.143 134.695a2.528 2.528 0 0 1 .834.145l-.105-1.75h-1.48l-.104 1.756a2.545 2.545 0 0 1 .855-.151"></path><path fill="#f15b43" d="M248.007 136.53c6.599-7.918 0-19.212 0-19.212s-6.598 11.294 0 19.212"></path><path fill="#1b202b" d="M248.018 118.805a2.52 2.52 0 0 1 .833.144l-.104-1.749h-1.48l-.105 1.756a2.526 2.526 0 0 1 .856-.15"></path><path fill="#516eb5" d="M427.48 159.999c6.598-7.917 0-19.212 0-19.212s-6.599 11.295 0 19.212"></path><path fill="#1b202b" d="M427.491 142.274a2.52 2.52 0 0 1 .833.144l-.104-1.748h-1.48l-.105 1.755a2.555 2.555 0 0 1 .856-.151"></path><path fill="#82c56d" d="M451.139 151.212c6.598-7.918 0-19.213 0-19.213s-6.6 11.295 0 19.213"></path><path fill="#1b202b" d="M451.15 133.487a2.553 2.553 0 0 1 .833.144l-.105-1.748h-1.48l-.105 1.755a2.555 2.555 0 0 1 .856-.151"></path><path fill="#f15b43" d="M461.657 136.59c6.598-7.919 0-19.214 0-19.214s-6.599 11.295 0 19.213"></path><path fill="#1b202b" d="M461.668 118.864a2.553 2.553 0 0 1 .834.144l-.105-1.748h-1.48l-.105 1.755a2.555 2.555 0 0 1 .856-.151"></path><path fill="#ffcb5d" d="M404.527 152.42c6.6-7.918 0-19.213 0-19.213s-6.598 11.295 0 19.213"></path><path fill="#1b202b" d="M404.54 134.695a2.522 2.522 0 0 1 .832.145l-.104-1.75h-1.48l-.105 1.756a2.55 2.55 0 0 1 .856-.151"></path><path fill="#f15b43" d="M390.403 138.53c6.598-7.918 0-19.212 0-19.212s-6.599 11.294 0 19.212"></path><path fill="#1b202b" d="M390.415 120.805a2.52 2.52 0 0 1 .833.144l-.104-1.749h-1.481l-.104 1.756a2.522 2.522 0 0 1 .856-.15"></path><path fill="#303443" d="M461.021 118.45c-3.77 5.323-7.518 10.364-13.03 14.068a38.28 38.28 0 0 1-29.796 5.437c-11.87-2.77-19.483-10.402-27.717-18.672a.748.748 0 0 0-1.156.148c-3.77 5.324-7.507 10.373-13.03 14.068a38.33 38.33 0 0 1-27.17 5.965c-13.208-2.108-21.24-10.754-29.62-20.181a.745.745 0 0 0-1.155.148c-3.77 5.324-7.508 10.373-13.03 14.068a38.287 38.287 0 0 1-28.048 5.803c-12.856-2.361-20.648-11.064-28.742-20.372-.623-.716-1.659.329-1.04 1.04 4.324 4.973 8.422 10.358 13.847 14.193a39.519 39.519 0 0 0 54.628-8.858c.8-1.068 1.557-2.168 2.328-3.256a8.431 8.431 0 0 1 1.218-1.72c-.155.116-1.48-.153-.75.328 2.36 1.556 4.407 4.997 6.32 7.108 14.043 15.503 38.04 18.246 54.645 5.04a42.978 42.978 0 0 0 8.088-8.705c.8-1.111 1.605-2.923 2.673-3.771-.089.069-1.43-.12-.772.27a11.537 11.537 0 0 1 1.804 1.812c5.43 5.45 10.552 10.886 17.725 14.11a41.35 41.35 0 0 0 32.362 1.027c9.22-3.721 15.114-10.485 20.69-18.355.547-.773-.728-1.51-1.272-.742M506.52 508.663H206.086a1.5 1.5 0 1 1 0-3H506.52a1.5 1.5 0 0 1 0 3ZM195.674 508.663h-1.727a1.5 1.5 0 0 1 0-3h1.727a1.5 1.5 0 0 1 0 3ZM184.579 508.663h-12.105a1.5 1.5 0 1 1 0-3h12.105a1.5 1.5 0 1 1 0 3ZM527.578 508.663h-12.104a1.5 1.5 0 0 1 0-3h12.104a1.5 1.5 0 0 1 0 3Z"></path></svg>