<svg xmlns="http://www.w3.org/2000/svg" data-name="Layer 1" viewBox="0 0 700 550" id="christmas-llama"><path fill="#eef2fa" d="M482.626 184.693a134 134 0 1 0-268.001 0l1.374 292.576h268.002Z"></path><path fill="#bfcbd7" d="M338.533 432.098a3.052 3.052 0 0 1-3.041-2.835l-1.539-21.537a3.052 3.052 0 0 1 6.089-.434l1.539 21.536a3.053 3.053 0 0 1-2.828 3.262 3.063 3.063 0 0 1-.22.008M360.8 433.028a3.052 3.052 0 0 1-3.04-2.835l-1.538-21.537a3.052 3.052 0 1 1 6.089-.435l1.537 21.536a3.052 3.052 0 0 1-2.826 3.263 3.118 3.118 0 0 1-.222.008M382.347 431.196a3.052 3.052 0 0 1-3.04-2.835l-1.54-21.536a3.052 3.052 0 1 1 6.09-.436l1.539 21.538a3.054 3.054 0 0 1-2.828 3.262 3.089 3.089 0 0 1-.22.007M400.306 431.68a3.052 3.052 0 0 1-3.041-2.834l-1.54-21.537a3.052 3.052 0 1 1 6.09-.435l1.539 21.537a3.052 3.052 0 0 1-2.827 3.261 2.59 2.59 0 0 1-.22.009"></path><path fill="#fff" d="M440.655 336.933c-6.52-11.794-16.629.513-16.629.513-.22-8.571-11.868-7.251-11.868-7.251-7.032-8.572-17.142-2.638-17.142-2.638-4.615-7.033-19.449-4.725-19.449-4.725 0-3.627-4.69-6.373-4.69-6.373 4.652-6.154-.914-11.869-.914-11.869 4.395-5.493-1.209-13.735-1.209-13.735 8.461-6.483 2.636-15.493 2.636-15.493 3.627-10.11-4.613-13.736-4.613-13.736 4.613-6.811-4.506-17.691-4.506-17.691 7.143-8.131-2.968-15.603-2.968-15.603 23.407-16.153 13.297-25.164 10.55-26.373-2.748-1.208-5.934-.66-7.802 6.484-1.868 7.143-9.56 10.55-9.56 10.55-3.847-6.925-10.658-3.391-10.658-3.391-5.935-7.785-10.769.422-10.769.422-6.924-1.977-8.462 3.627-8.462 3.627-7.288-3.223-8.387-8.791-9.12-10.109-.732-1.318-4.688-17.142-10.695-3.956s12.893 24.32 12.893 24.32c-10.696 2.785-3.81 11.722-3.81 11.722-3.809 3.516-1.026 8.058-1.026 8.058-4.248 4.688-.145 9.963-.145 9.963-8.644 3.955-4.103 12.306-4.103 12.306-4.541 6.3.44 14.798.44 14.798-2.49 11.282 4.248 12.893 4.248 12.893-6.739 3.37-2.782 10.319-2.782 10.319-2.784 3.87-.147 8.142-.147 8.142-4.835 3.516-1.319 9.376-1.319 9.376-3.223 9.085 1.319 11.575 1.319 11.575-5.715 3.956-.879 9.377-.879 9.377-4.249 9.377 3.663 19.046 3.663 19.046-7.033 12.6 4.834 20.073 4.834 20.073-2.93 13.479 4.249 15.237 4.249 15.237-1.026 10.11 4.542 15.823 10.256 15.677a6.647 6.647 0 0 0 1.636-.256l.333 4.671a6.105 6.105 0 0 0 6.083 5.67c.145 0 .293-.006.442-.015a6.107 6.107 0 0 0 5.654-6.526l-.783-10.935a20.38 20.38 0 0 0 9.497-1.226l.027 12.64a6.715 6.715 0 0 0 6.716 6.7h.014a6.715 6.715 0 0 0 6.7-6.73l-.024-11.132a28.094 28.094 0 0 0 9.62 1.367l.638 8.925a6.105 6.105 0 0 0 6.083 5.67c.146 0 .293-.004.44-.015a6.104 6.104 0 0 0 5.655-6.523l-.724-10.14a35.725 35.725 0 0 0 3.382-1.23 13.943 13.943 0 0 0 2.36 1.503l.025 11.603a6.106 6.106 0 0 0 6.106 6.091h.012a6.105 6.105 0 0 0 6.091-6.119l-.023-10.756c.52-.154.812-.27.812-.27 12.453-5.128 6.3-20.219 6.3-20.219 21.685-11.135 9.231-25.2 9.231-25.2 19.926-8.644 7.179-23.075 7.179-23.075 12.819 1.61 10.695-6.008 10.695-6.008"></path><path fill="#f0efef" d="m350.85 410.618-.001-.474a20.414 20.414 0 0 1-3.638 1.01 20.118 20.118 0 0 0 3.639-.536M339.342 215.895a9.152 9.152 0 0 1 2.152-.711c-2.543-3.103-4.868-3.316-6.674-2.574 1.376.239 2.908 1.167 4.522 3.285M350 219.285a17.479 17.479 0 0 0 1.991-1.104 7.408 7.408 0 0 0-8.479-3.182c2.129.056 4.648.971 6.489 4.286M409.667 330.487s11.648-1.318 11.867 7.253a20.545 20.545 0 0 1 2.21-2.211c-1.785-6.439-11.585-5.335-11.585-5.335a12.145 12.145 0 0 0-12.419-4.338 11.872 11.872 0 0 1 9.927 4.631M328.573 216.317s.163-.276.464-.678a6.928 6.928 0 0 0-2.765.27 10.558 10.558 0 0 1 2.3.408M367.362 202.252c2.748 1.21 12.857 10.22-10.549 26.373 0 0 10.11 7.472 2.967 15.602 0 0 9.12 10.88 4.506 17.693 0 0 8.24 3.625 4.614 13.736 0 0 5.824 9.01-2.637 15.493 0 0 5.605 8.24 1.21 13.736 0 0 5.564 5.713.914 11.866 0 0 4.689 2.747 4.689 6.374 0 0 14.835-2.307 19.45 4.725a14.592 14.592 0 0 1 2.03-.924c-5.066-6.259-18.99-4.094-18.99-4.094 0-3.626-4.69-6.374-4.69-6.374 4.653-6.153-.914-11.867-.914-11.867 4.396-5.494-1.208-13.735-1.208-13.735 8.46-6.484 2.637-15.494 2.637-15.494 3.627-10.11-4.615-13.735-4.615-13.735 4.615-6.813-4.505-17.692-4.505-17.692 7.143-8.132-2.968-15.604-2.968-15.604 23.406-16.152 13.296-25.163 10.55-26.371a4.434 4.434 0 0 0-3.803-.127 6.217 6.217 0 0 1 1.312.42M440.655 336.933c-2.737-4.95-6.105-5.653-9.093-4.804 2.275.139 4.607 1.488 6.602 5.098 0 0 1.3 4.67-4.287 5.922 8.426-.284 6.778-6.216 6.778-6.216M427.469 343.233s12.746 14.431-7.179 23.076c0 0 12.454 14.065-9.23 25.2 0 0 6.152 15.09-6.301 20.22 0 0-.293.115-.812.27l.023 10.755a6.103 6.103 0 0 1-4.162 5.798c.181.017.364.027.55.027h.013a6.104 6.104 0 0 0 6.091-6.117l-.024-10.757c.519-.154.812-.27.812-.27 12.454-5.128 6.3-20.22 6.3-20.22 21.684-11.133 9.23-25.199 9.23-25.199 17.71-7.683 9.612-19.936 7.59-22.568a27.171 27.171 0 0 1-2.901-.215M310.992 209.835c.732 1.318 1.831 6.886 9.12 10.109a5.532 5.532 0 0 1 .584-1.265c-5.586-3.266-6.55-7.943-7.214-9.137-.593-1.068-3.301-11.648-7.5-8.63 2.773 1.379 4.544 8.083 5.01 8.923M388.485 410.612c.556-.175 1.05-.343 1.48-.495-.196-.14-.394-.286-.59-.44a35.802 35.802 0 0 1-3.382 1.227l.725 10.142a6.103 6.103 0 0 1-4.158 6.22 6.86 6.86 0 0 0 .995.012 6.107 6.107 0 0 0 5.654-6.526ZM343.872 411.48a20.775 20.775 0 0 1-2.519-.11l.781 10.935a6.1 6.1 0 0 1-4.158 6.22 5.954 5.954 0 0 0 .996.013 6.105 6.105 0 0 0 5.653-6.525ZM364.282 411.622l.025 11.132a6.717 6.717 0 0 1-4.679 6.414c.15.01.301.022.454.022h.016a6.714 6.714 0 0 0 6.7-6.729l-.022-10.143a24.242 24.242 0 0 1-2.494-.696"></path><path fill="#f6978f" d="M321.05 225.056c.156-1.878-2.995-2.146-5.275-5.421-1.983-2.85-.935-4.57-3.515-7.765-.822-1.016-1.917-2.373-3.077-2.2-1.565.237-2.679 3.165-2.638 5.57.068 4.08 3.458 6.845 6.74 9.522 3.7 3.019 5.251 2.643 5.713 2.491a2.92 2.92 0 0 0 2.052-2.197"></path><path fill="#f0efef" d="M346.74 252.152c0 8.253-4.066 14.945-9.083 14.945s-9.085-6.692-9.085-14.945 4.068-14.944 9.085-14.944c5.017 0 9.083 6.69 9.083 14.944"></path><path fill="#303443" d="M340.738 258.428c-1.27 0-2.348-1.169-2.975-2.041-.6 1.269-1.352 1.95-2.245 2.033-1.954.198-3.566-2.614-3.745-2.932l.925-.52c.367.653 1.647 2.516 2.724 2.396.638-.058 1.238-.856 1.733-2.306l.392-1.15.576 1.07c.34.63 1.534 2.39 2.616 2.39a.582.582 0 0 0 .06-.002c.865-.053 1.528-1.296 1.931-2.33l.988.385c-.75 1.924-1.712 2.934-2.856 3.004a2.467 2.467 0 0 1-.124.003Z"></path><path fill="#303443" d="M337.128 249.074h1.06v6.155h-1.06z"></path><path fill="#f6978f" d="M321.48 246.2a3.84 3.84 0 1 1-3.84-3.84 3.84 3.84 0 0 1 3.84 3.84M360.598 246.2a3.84 3.84 0 1 1-3.84-3.84 3.84 3.84 0 0 1 3.84 3.84"></path><path fill="#303443" d="m325.18 235.136.011-.004c-.037-.02-.084-.04-.127-.059l-.069-.031c-1.342-.55-4.737-.373-4.737-.373l1.845 1.417.012-.001a2.26 2.26 0 0 0-.281 1.079 2.294 2.294 0 1 0 3.346-2.028"></path><path fill="#fff" d="M324.745 237.489a.917.917 0 0 0 0-1.833.917.917 0 0 0 0 1.833"></path><path fill="#303443" d="m349.63 235.136-.011-.004c.037-.02.084-.04.127-.059l.069-.031c1.343-.55 4.737-.373 4.737-.373l-1.845 1.417-.012-.001a2.26 2.26 0 0 1 .281 1.079 2.294 2.294 0 1 1-3.346-2.028"></path><path fill="#fff" d="M350.065 237.489a.917.917 0 0 0 0-1.833.917.917 0 0 0 0 1.833"></path><path fill="#ef403a" d="M317.64 287.844s-5.061 15.977-3.84 24.33h16.605l1.83-23.736s4.543 28.516 4.543 32.28c0 0 14.7-1.732 16.14-4.59 0 0-3.247-21.447-6.178-27.864-2.93-6.419-29.1-.42-29.1-.42"></path><path fill="#ef403a" d="M317.64 287.844s-5.061 15.977-3.84 24.33h16.605l1.83-23.736s4.543 28.516 4.543 32.28c0 0 14.7-1.732 16.14-4.59 0 0-3.247-21.447-6.178-27.864-2.93-6.419-29.1-.42-29.1-.42"></path><path fill="#c72932" d="M348.176 292.42a31.183 31.183 0 0 0-1.435-4.157c-2.93-6.419-29.102-.419-29.102-.419s-.518 1.639-1.183 4.138c4.375.32 9.488.546 15.457.635l.323-4.18s.261 1.646.66 4.194c1.555.019 3.163.03 4.835.03 3.805 0 7.275-.086 10.445-.241"></path><path fill="#fff" d="M362.015 231.718h-50.454a4.8 4.8 0 0 1-4.799-4.798v-.002a4.8 4.8 0 0 1 4.8-4.8h50.453a4.8 4.8 0 0 1 4.8 4.8v.002a4.798 4.798 0 0 1-4.8 4.798"></path><path fill="#f0efef" d="M363.74 233.596c-.008-.013-.015-.024-.021-.037-.096-.19-.196-.374-.301-.555-.026-.046-.053-.09-.08-.135q-.131-.22-.266-.431c-.034-.053-.068-.103-.103-.155a17.565 17.565 0 0 0-.373-.54 16.569 16.569 0 0 0-.268-.358c-.036-.046-.072-.094-.11-.14a11.869 11.869 0 0 0-.375-.46c-.107-.126-.211-.247-.316-.363l-.057-.065a17.263 17.263 0 0 0-.728-.759l-.025-.025c-.102-.1-.201-.195-.297-.284-.026-.026-.052-.048-.077-.072-.075-.07-.15-.14-.22-.2l-.078-.07a28.18 28.18 0 0 0-.181-.16c-.026-.02-.05-.042-.074-.062-.051-.045-.1-.086-.146-.122l-.059-.05-.114-.092c-.012-.01-.027-.02-.037-.03l-.08-.061-.018-.014-.033-.024a76.33 76.33 0 0 0 1.235-.87c.118-.083.231-.167.349-.25.286-.21.57-.416.845-.622l.353-.264c.29-.218.574-.436.852-.652l.243-.186q.542-.428 1.059-.847h.002-49.054a4.79 4.79 0 0 0-3.953 2.08c.154.127.306.249.457.368a40.368 40.368 0 0 0 3.894 2.76l.016.01c.019.01.034.021.046.028l.018.01a.059.059 0 0 0 .015.01c-3.604.938-5.207 2.575-5.754 4.332h54.115a11.18 11.18 0 0 0-.301-.643"></path><path fill="#f6978f" d="M333.701 244.826s2.783 4.249 3.956 4.249 3.956-4.249 3.956-4.249Z"></path><path fill="#303443" d="M417.697 358.924a7.403 7.403 0 0 1-6.86-4.642 7.39 7.39 0 0 1-14.25-2.75h1.06a6.33 6.33 0 1 0 12.66 0h1.059a6.338 6.338 0 0 0 6.331 6.332Z"></path><path fill="#303443" d="M390.257 358.924a4.013 4.013 0 0 1-1.418-.273l.374-.992a2.963 2.963 0 0 0 1.044.205 6.338 6.338 0 0 0 6.33-6.331h1.06a7.399 7.399 0 0 1-7.39 7.39ZM387.675 393.296a7.402 7.402 0 0 1-6.86-4.64 7.39 7.39 0 0 1-14.25-2.75h1.06a6.33 6.33 0 1 0 12.66 0h1.06a6.338 6.338 0 0 0 6.33 6.33Z"></path><path fill="#303443" d="M360.236 393.297a4.031 4.031 0 0 1-1.42-.273l.375-.992a2.977 2.977 0 0 0 1.045.205 6.338 6.338 0 0 0 6.33-6.331h1.06a7.399 7.399 0 0 1-7.39 7.391ZM340.005 329.517a7.403 7.403 0 0 1-6.861-4.642 7.39 7.39 0 0 1-14.25-2.748h1.06a6.33 6.33 0 1 0 12.66 0h1.06a6.338 6.338 0 0 0 6.331 6.33Z"></path><path fill="#303443" d="M312.564 329.517a4.026 4.026 0 0 1-1.418-.274l.375-.991a2.972 2.972 0 0 0 1.043.205 6.338 6.338 0 0 0 6.332-6.33h1.06a7.399 7.399 0 0 1-7.392 7.39Z"></path><path fill="#ef403a" d="M373.187 283.991a13.414 13.414 0 0 0-1.796-8.629c1.644-4.583.847-7.83-.514-10.015-5.897 7.019-8.827 6.83-38.642 7.488-29.81.66-25.692-9.798-25.691-9.8-2.584 4.061.052 8.92.052 8.92-4.542 6.3.44 14.797.44 14.797-.003.016-.005.03-.009.044a230.752 230.752 0 0 0 30.704 1.642c18.697 0 29.372-2.033 35.457-4.447"></path><path fill="#c72932" d="m373.187 283.992.002-.01a13.125 13.125 0 0 0-1.404-7.918l-.001-.002c-.113-.22-.21-.391-.278-.51l-.016-.028-.06-.099-.02-.033-.01-.016-.009-.014.001-.003c.19-.533.343-1.044.47-1.542.015-.055.032-.111.046-.166a14.42 14.42 0 0 0 .295-1.566 12.435 12.435 0 0 0 .1-1.247l.003-.176a10.762 10.762 0 0 0-.044-1.17c-.003-.034-.008-.065-.01-.098a9.45 9.45 0 0 0-1.375-4.047 31.296 31.296 0 0 1-1.7 1.884 11.813 11.813 0 0 1-.277 8.425s2.836 4.395 1.666 9.254q1.433-.446 2.621-.918Z"></path><path fill="#fff" d="M309.82 277.267a.917.917 0 0 0 0-1.833.917.917 0 0 0 0 1.833M318.903 282.834a.917.917 0 0 0 0-1.832.917.917 0 0 0 0 1.832M329.16 279.904a.917.917 0 0 0 0-1.832.917.917 0 0 0 0 1.832M341.466 295.727a.916.916 0 0 0 0-1.832.916.916 0 0 0 0 1.832M325.057 301.001a.916.916 0 0 0 0-1.831.916.916 0 0 0 0 1.831M331.504 287.522a.916.916 0 0 0 0-1.831.916.916 0 0 0 0 1.831M308.354 286.35a.916.916 0 0 0 0-1.831.916.916 0 0 0 0 1.831M339.708 275.801a.916.916 0 0 0 0-1.831.916.916 0 0 0 0 1.831M339.708 283.127a.917.917 0 0 0 0-1.832.917.917 0 0 0 0 1.832M318.025 294.555a.916.916 0 0 0 0-1.832.916.916 0 0 0 0 1.832M316.852 308.913a.916.916 0 0 0 0-1.832.916.916 0 0 0 0 1.832M327.108 310.378a.917.917 0 0 0 0-1.832.917.917 0 0 0 0 1.832"></path><path fill="#f0efef" d="M326.23 291.625a.916.916 0 0 0 0-1.832.916.916 0 0 0 0 1.832"></path><path fill="#fff" d="M337.364 303.053a.916.916 0 0 0 0-1.832.916.916 0 0 0 0 1.832M344.69 289.28a.916.916 0 0 0 0-1.831.916.916 0 0 0 0 1.831M348.206 305.69a.916.916 0 0 0 0-1.832.916.916 0 0 0 0 1.832M342.052 312.723a.917.917 0 0 0 0-1.833.917.917 0 0 0 0 1.833M347.913 315.067a.917.917 0 0 0 0-1.832.917.917 0 0 0 0 1.832M350.256 278.146a.916.916 0 0 0 0-1.832.916.916 0 0 0 0 1.832M319.49 274.044a.917.917 0 0 0 0-1.833.917.917 0 0 0 0 1.833M359.048 285.179a.917.917 0 0 0 0-1.833.917.917 0 0 0 0 1.833M357.582 273.457a.916.916 0 0 0 0-1.831.916.916 0 0 0 0 1.831M366.666 279.317a.916.916 0 0 0 0-1.831.916.916 0 0 0 0 1.831M368.424 269.355a.917.917 0 0 0 0-1.832.917.917 0 0 0 0 1.832M354.066 288.695a.917.917 0 0 0 0-1.833.917.917 0 0 0 0 1.833M370.476 285.764a.917.917 0 0 0 0-1.832.917.917 0 0 0 0 1.832M348.499 283.713a.916.916 0 0 0 0-1.831.916.916 0 0 0 0 1.831"></path><path fill="#ef403a" d="M315.154 231.5s30.846-4.337 43.503 0c0 0-1.902-14.142 6.92-13.211 8.823.931 17.205 13.871 20.587 16.224 0 0-2.666-9.326-11.176-24.262-8.494-14.907-29.555-23.673-50.287-11.322-16.22 9.664-15.713 24.411-9.547 32.571"></path><path fill="#c72932" d="M357.009 206.681c-15.879-6.617-22.643 16.175-22.643 16.175l24.12 5.427c.024-4.113 1.01-10.635 7.092-9.994 8.822.931 17.203 13.871 20.586 16.224-5.549-10.693-13.275-21.216-29.155-27.832"></path><path fill="#fff" d="M362.015 231.718h-50.454a4.8 4.8 0 0 1-4.799-4.798v-.002a4.8 4.8 0 0 1 4.8-4.8h50.453a4.8 4.8 0 0 1 4.8 4.8v.002a4.798 4.798 0 0 1-4.8 4.798M391.236 234.513a5.073 5.073 0 1 1-5.072-5.074 5.073 5.073 0 0 1 5.072 5.074"></path><path fill="#f6978f" d="M316.687 218.145a2.91 2.91 0 0 1-2.388-2.945 11.475 11.475 0 0 1 1.834-6.167c2.796-4.208 8.413-5.994 9.41-4.852.432.495-.276 1.233-1.618 5.44-1.055 3.313-.87 3.652-1.617 4.853-.251.404-2.628 4.118-5.588 3.676a.36.36 0 0 0-.033-.005"></path><path fill="#bfcbd7" d="M386.164 239.586a5.046 5.046 0 0 0 3.301-1.227c-6.005-1.795-5.76-8.255-5.758-8.284a5.072 5.072 0 0 0 2.457 9.51"></path><path fill="#fff" d="M350.018 226.378s-2.142-2.442 2.473-7.387c0 0 7.693-3.406 9.56-10.548s5.055-7.693 7.802-6.484 12.857 10.22-10.55 26.373"></path><path fill="#f0efef" d="m359.304 228.332-9.286-1.955a2.884 2.884 0 0 1-.474-2.124c-2.45 3.622-.881 5.416-.881 5.416l9.285 1.954c9.68-6.68 13.625-12.139 14.731-16.33-2.015 3.635-6.056 7.987-13.375 13.039"></path><path fill="#f6978f" d="M355.092 222.874c-.157-1.877 2.994-2.146 5.275-5.421 1.983-2.85.935-4.57 3.516-7.765.82-1.016 1.916-2.373 3.075-2.198 1.566.235 2.679 3.163 2.638 5.568-.067 4.08-3.458 6.845-6.74 9.524-3.7 3.017-5.251 2.642-5.713 2.49a2.916 2.916 0 0 1-2.05-2.198"></path><path fill="#303443" d="m341.907 210.541-.829-.66c.053-.067 5.442-6.683 14.144-4.382l-.271 1.024a12.798 12.798 0 0 0-13.044 4.018Z"></path><path fill="#fff" d="M342.063 117.973c4.091 0 4.099-6.36 0-6.36-4.091 0-4.098 6.36 0 6.36M407.69 209.546c4.091 0 4.099-6.36 0-6.36-4.091 0-4.098 6.36 0 6.36M237.687 269.492c4.092 0 4.098-6.36 0-6.36-4.091 0-4.098 6.36 0 6.36M390.902 97.37c4.091 0 4.098-6.36 0-6.36-4.091 0-4.099 6.36 0 6.36M298.566 149.26c4.091 0 4.099-6.358 0-6.358-4.091 0-4.098 6.359 0 6.359M331.38 74.476c4.09 0 4.098-6.36 0-6.36-4.092 0-4.099 6.36 0 6.36M380.218 175.969c4.092 0 4.099-6.36 0-6.36-4.09 0-4.098 6.36 0 6.36M402.547 139.435c4.092 0 4.099-6.359 0-6.359-4.091 0-4.098 6.36 0 6.36M465.686 253.043c4.092 0 4.098-6.36 0-6.36-4.091 0-4.099 6.36 0 6.36M397.007 265.252c4.092 0 4.098-6.359 0-6.359-4.091 0-4.099 6.36 0 6.36M266.516 354.536c4.092 0 4.098-6.36 0-6.36-4.092 0-4.099 6.36 0 6.36M456.529 346.142c4.091 0 4.098-6.36 0-6.36-4.091 0-4.099 6.36 0 6.36M442.03 284.33c4.091 0 4.099-6.36 0-6.36-4.092 0-4.098 6.36 0 6.36M235.907 309.237a1.59 1.59 0 0 0 0-3.18 1.59 1.59 0 0 0 0 3.18M264.99 296.54c4.09 0 4.098-6.359 0-6.359-4.092 0-4.099 6.36 0 6.36M455.766 382.77c4.091 0 4.099-6.359 0-6.359-4.092 0-4.098 6.36 0 6.36M228.233 417.789c4.092 0 4.098-6.36 0-6.36-4.091 0-4.098 6.36 0 6.36M462.634 417.11c4.092 0 4.098-6.359 0-6.359-4.092 0-4.099 6.36 0 6.36M288.645 410.242c4.093 0 4.099-6.36 0-6.36-4.09 0-4.097 6.36 0 6.36M426.005 406.427c4.091 0 4.098-6.36 0-6.36-4.092 0-4.099 6.36 0 6.36"></path><path fill="#f0efef" d="M341.144 169.197c4.092 0 4.099-6.36 0-6.36-4.091 0-4.098 6.36 0 6.36M312.557 107.799c4.09 0 4.098-6.36 0-6.36-4.093 0-4.099 6.36 0 6.36M447.372 110.342c4.091 0 4.099-6.36 0-6.36-4.092 0-4.098 6.36 0 6.36M356.816 77.274c4.092 0 4.099-6.36 0-6.36-4.09 0-4.098 6.36 0 6.36M365.973 135.27c4.093 0 4.099-6.359 0-6.359-4.09 0-4.097 6.36 0 6.36"></path><path fill="#fff" d="M236.5 165.455c4.092 0 4.1-6.36 0-6.36-4.091 0-4.098 6.36 0 6.36M227.555 216.18a1.59 1.59 0 0 0 0-3.179 1.59 1.59 0 0 0 0 3.18"></path><path fill="#f0efef" d="M391.92 240.578c4.09 0 4.098-6.359 0-6.359-4.092 0-4.099 6.36 0 6.36M472.809 223.282c4.091 0 4.098-6.36 0-6.36-4.092 0-4.099 6.36 0 6.36M431.092 231.511c4.091 0 4.099-6.359 0-6.359-4.091 0-4.098 6.36 0 6.36M426.005 288.614c4.091 0 4.098-6.36 0-6.36-4.092 0-4.099 6.36 0 6.36M371.57 290.434c4.092 0 4.098-6.359 0-6.359-4.091 0-4.099 6.36 0 6.36M469.757 312.82c4.09 0 4.097-6.36 0-6.36-4.093 0-4.099 6.36 0 6.36M429.057 366.745c4.091 0 4.099-6.36 0-6.36-4.09 0-4.098 6.36 0 6.36"></path><path fill="#fff" d="M236.416 389.066a1.59 1.59 0 0 0 0-3.18 1.59 1.59 0 0 0 0 3.18"></path><path fill="#f0efef" d="M274.91 324.012c4.092 0 4.098-6.36 0-6.36-4.092 0-4.099 6.36 0 6.36"></path><path fill="#fff" d="M225.435 335.882c4.091 0 4.099-6.36 0-6.36-4.09 0-4.098 6.36 0 6.36"></path><path fill="#f0efef" d="M299.858 192.09c4.092 0 4.098-6.359 0-6.359-4.091 0-4.099 6.36 0 6.36M422.656 180.644c4.09 0 4.098-6.36 0-6.36-4.091 0-4.099 6.36 0 6.36"></path><path fill="#fff" d="m268.992 369.162-1.295-190.974a133.795 133.795 0 0 1 54.84-103.772 134.016 134.016 0 0 0-76.037 116.49l1.295 190.974h21.197ZM247.795 392.479h21.197v11.659h-21.197zM247.795 413.677h21.197v31.796h-21.197z"></path><path fill="#bc6a3b" d="M215.999 433.772h268.002v29.755H215.999z"></path><path fill="#9f5325" d="M215.999 452.086h268.002v11.44H215.999z"></path><path fill="#bc6a3b" d="M489.097 499.308H210.903a7.42 7.42 0 0 1-7.42-7.419v-25.516a7.42 7.42 0 0 1 7.42-7.42h278.194a7.42 7.42 0 0 1 7.42 7.42v25.516a7.42 7.42 0 0 1-7.42 7.42"></path><path fill="#fff" d="M462.354 186.151a153.363 153.363 0 0 0-8.147-33.639 129.88 129.88 0 0 0-15.868-29.98 131.518 131.518 0 0 0-23.088-24.87 151.765 151.765 0 0 0-29.054-18.812 90.835 90.835 0 0 1 32.563 14.152 102.787 102.787 0 0 1 40.986 57.745 91.807 91.807 0 0 1 2.608 35.404"></path></svg>